<?xml version="1.0" encoding="utf-8"?>
<!-- Generator: Adobe Illustrator 19.1.0, SVG Export Plug-In . SVG Version: 6.00 Build 0)  -->
<svg version="1.1" id="Layer_1" xmlns="http://www.w3.org/2000/svg" xmlns:xlink="http://www.w3.org/1999/xlink" x="0px" y="0px"
	 viewBox="-471 345 88 56" style="enable-background:new -471 345 88 56;" xml:space="preserve">
<style type="text/css">
	.st0{fill:url(#SVGID_1_);}
	.st1{fill:url(#SVGID_2_);}
	.st2{fill:#201D26;}
	.st3{fill:url(#SVGID_3_);}
</style>
<linearGradient id="SVGID_1_" gradientUnits="userSpaceOnUse" x1="-427" y1="357" x2="-383" y2="357">
	<stop  offset="0" style="stop-color:#5B19FF;stop-opacity:0"/>
	<stop  offset="1" style="stop-color:#3C19FF"/>
</linearGradient>
<path class="st0" d="M-391,353c-1.6,0-3.1,0.5-4.3,1.3c-1.2-5.3-6-9.3-11.7-9.3c-6.6,0-12,5.4-12,12c0,0.1,0,0.2,0,0.4
	c-0.6-0.2-1.3-0.4-2-0.4c-3.3,0-6,2.7-6,6c0,3.2,2.6,5.9,5.8,6v0h12.8h0.5h17c4.4,0,8-3.6,8-8S-386.6,353-391,353z"/>
<linearGradient id="SVGID_2_" gradientUnits="userSpaceOnUse" x1="-471" y1="369" x2="-383" y2="369">
	<stop  offset="0" style="stop-color:#5B19FF;stop-opacity:0"/>
	<stop  offset="1" style="stop-color:#3C19FF"/>
</linearGradient>
<path class="st1" d="M-399,361c-3.2,0-6.1,0.9-8.6,2.5c-2.5-10.6-12-18.5-23.4-18.5c-13.3,0-24,10.7-24,24c0,0.2,0,0.5,0,0.7
	c-1.3-0.4-2.6-0.7-4-0.7c-6.6,0-12,5.4-12,12c0,6.5,5.1,11.7,11.5,12v0h25.5h1h34c8.8,0,16-7.2,16-16S-390.2,361-399,361z"/>
<g>
	<path class="st2" d="M-423,361c-8.8,0-16,7.2-16,16s7.2,16,16,16s16-7.2,16-16S-414.2,361-423,361z M-429,379c-1.1,0-2-0.9-2-2
		s0.9-2,2-2s2,0.9,2,2S-427.9,379-429,379z M-423,385c-2.2,0-4-1.8-4-4h8C-419,383.2-420.8,385-423,385z M-417,379c-1.1,0-2-0.9-2-2
		s0.9-2,2-2s2,0.9,2,2S-415.9,379-417,379z"/>
</g>
<linearGradient id="SVGID_3_" gradientUnits="userSpaceOnUse" x1="-471" y1="389" x2="-427" y2="389">
	<stop  offset="0" style="stop-color:#5B19FF;stop-opacity:0"/>
	<stop  offset="1" style="stop-color:#3C19FF"/>
</linearGradient>
<path class="st3" d="M-435,385c-1.6,0-3.1,0.5-4.3,1.3c-1.2-5.3-6-9.3-11.7-9.3c-6.6,0-12,5.4-12,12c0,0.1,0,0.2,0,0.4
	c-0.6-0.2-1.3-0.4-2-0.4c-3.3,0-6,2.7-6,6c0,3.2,2.6,5.9,5.8,6v0h12.8h0.5h17c4.4,0,8-3.6,8-8S-430.6,385-435,385z"/>
</svg>
