<?xml version="1.0" encoding="utf-8"?>
<!-- Generator: Adobe Illustrator 19.1.0, SVG Export Plug-In . SVG Version: 6.00 Build 0)  -->
<svg version="1.1" id="Layer_1" xmlns="http://www.w3.org/2000/svg" xmlns:xlink="http://www.w3.org/1999/xlink" x="0px" y="0px"
	 viewBox="-23 25 80 80" style="enable-background:new -23 25 80 80;" xml:space="preserve">
<style type="text/css">
	.st0{fill:url(#SVGID_1_);}
	.st1{fill:url(#SVGID_2_);}
	.st2{fill:url(#SVGID_3_);}
	.st3{fill:url(#SVGID_4_);}
	.st4{fill:url(#SVGID_5_);}
	.st5{fill:url(#SVGID_6_);}
	.st6{fill:url(#SVGID_7_);}
	.st7{fill:url(#SVGID_8_);}
	.st8{fill:#201D26;}
</style>
<linearGradient id="SVGID_1_" gradientUnits="userSpaceOnUse" x1="41" y1="67" x2="57" y2="67" gradientTransform="matrix(1 0 0 -1 0 132)">
	<stop  offset="0" style="stop-color:#5B19FF;stop-opacity:0"/>
	<stop  offset="1" style="stop-color:#3C19FF"/>
</linearGradient>
<circle class="st0" cx="49" cy="65" r="8"/>
<linearGradient id="SVGID_2_" gradientUnits="userSpaceOnUse" x1="-37" y1="99" x2="-21" y2="99" gradientTransform="matrix(4.489659e-11 -1 -1 -4.489659e-11 116 4)">
	<stop  offset="0" style="stop-color:#5B19FF;stop-opacity:0"/>
	<stop  offset="1" style="stop-color:#5B19FF"/>
</linearGradient>
<circle class="st1" cx="17" cy="33" r="8"/>
<linearGradient id="SVGID_3_" gradientUnits="userSpaceOnUse" x1="9" y1="81" x2="25" y2="81" gradientTransform="matrix(4.489659e-11 1 1 -4.489659e-11 -64 80)">
	<stop  offset="0" style="stop-color:#5B19FF;stop-opacity:0"/>
	<stop  offset="1" style="stop-color:#5B19FF"/>
</linearGradient>
<circle class="st2" cx="17" cy="97" r="8"/>
<linearGradient id="SVGID_4_" gradientUnits="userSpaceOnUse" x1="-69" y1="113" x2="-53" y2="113" gradientTransform="matrix(-1 0 0 1 -76 -48)">
	<stop  offset="0" style="stop-color:#5B19FF;stop-opacity:0"/>
	<stop  offset="1" style="stop-color:#5B19FF"/>
</linearGradient>
<circle class="st3" cx="-15" cy="65" r="8"/>
<linearGradient id="SVGID_5_" gradientUnits="userSpaceOnUse" x1="50.5272" y1="89.9996" x2="66.5274" y2="89.9996" gradientTransform="matrix(0.7071 0.7071 0.7071 -0.7071 -65.3964 109.8811)">
	<stop  offset="0" style="stop-color:#5B19FF;stop-opacity:0"/>
	<stop  offset="1" style="stop-color:#5B19FF"/>
</linearGradient>
<circle class="st4" cx="39.6" cy="87.6" r="8"/>
<linearGradient id="SVGID_6_" gradientUnits="userSpaceOnUse" x1="-14" y1="89.4727" x2="2.0002" y2="89.4727" gradientTransform="matrix(0.7071 -0.7071 -0.7071 -0.7071 107.1359 101.3964)">
	<stop  offset="0" style="stop-color:#5B19FF;stop-opacity:0"/>
	<stop  offset="1" style="stop-color:#5B19FF"/>
</linearGradient>
<circle class="st5" cx="39.6" cy="42.4" r="8"/>
<linearGradient id="SVGID_7_" gradientUnits="userSpaceOnUse" x1="-14" y1="90.5266" x2="2.0002" y2="90.5266" gradientTransform="matrix(-0.7071 0.7071 0.7071 0.7071 -73.8811 27.8584)">
	<stop  offset="0" style="stop-color:#5B19FF;stop-opacity:0"/>
	<stop  offset="1" style="stop-color:#5B19FF"/>
</linearGradient>
<circle class="st6" cx="-5.6" cy="87.6" r="8"/>
<linearGradient id="SVGID_8_" gradientUnits="userSpaceOnUse" x1="-78.5272" y1="89.9996" x2="-62.5271" y2="89.9996" gradientTransform="matrix(-0.7071 -0.7071 -0.7071 0.7071 8.1416 -71.1359)">
	<stop  offset="0" style="stop-color:#5B19FF;stop-opacity:0"/>
	<stop  offset="1" style="stop-color:#5B19FF"/>
</linearGradient>
<circle class="st7" cx="-5.6" cy="42.4" r="8"/>
<g>
	<path class="st8" d="M17,49C8.2,49,1,56.2,1,65s7.2,16,16,16s16-7.2,16-16S25.8,49,17,49z M11,67c-1.1,0-2-0.9-2-2s0.9-2,2-2
		s2,0.9,2,2S12.1,67,11,67z M17,73c-2.2,0-4-1.8-4-4h8C21,71.2,19.2,73,17,73z M23,67c-1.1,0-2-0.9-2-2s0.9-2,2-2s2,0.9,2,2
		S24.1,67,23,67z"/>
</g>
</svg>
