<?xml version="1.0" encoding="utf-8"?>
<!-- Generator: Adobe Illustrator 19.1.0, SVG Export Plug-In . SVG Version: 6.00 Build 0)  -->
<svg version="1.1" id="Layer_1" xmlns="http://www.w3.org/2000/svg" xmlns:xlink="http://www.w3.org/1999/xlink" x="0px" y="0px"
	 viewBox="0 0 160 64" style="enable-background:new 0 0 160 64;" xml:space="preserve">
<style type="text/css">
	.st0{fill:url(#SVGID_1_);}
	.st1{fill:url(#SVGID_2_);}
	.st2{fill:url(#SVGID_3_);}
	.st3{fill:url(#SVGID_4_);}
	.st4{fill:url(#SVGID_5_);}
	.st5{fill:url(#SVGID_6_);}
	.st6{fill:url(#SVGID_7_);}
	.st7{fill:url(#SVGID_8_);}
</style>
<linearGradient id="SVGID_1_" gradientUnits="userSpaceOnUse" x1="0" y1="32" x2="32" y2="32">
	<stop  offset="0.16" style="stop-color:#5B19FF;stop-opacity:0"/>
	<stop  offset="1" style="stop-color:#3C19FF"/>
</linearGradient>
<path class="st0" d="M24,40H8c-4.418,0-8-3.582-8-8v0c0-4.418,3.582-8,8-8h16c4.418,0,8,3.582,8,8v0C32,36.418,28.418,40,24,40z"/>
<linearGradient id="SVGID_2_" gradientUnits="userSpaceOnUse" x1="16" y1="56" x2="48" y2="56">
	<stop  offset="0.16" style="stop-color:#5B19FF;stop-opacity:0"/>
	<stop  offset="1" style="stop-color:#3C19FF"/>
</linearGradient>
<path class="st1" d="M40,64H24c-4.418,0-8-3.582-8-8v0c0-4.418,3.582-8,8-8h16c4.418,0,8,3.582,8,8v0C48,60.418,44.418,64,40,64z"/>
<linearGradient id="SVGID_3_" gradientUnits="userSpaceOnUse" x1="24" y1="24" x2="56" y2="24">
	<stop  offset="0.16" style="stop-color:#5B19FF;stop-opacity:0"/>
	<stop  offset="1" style="stop-color:#3C19FF"/>
</linearGradient>
<path class="st2" d="M48,32H32c-4.418,0-8-3.582-8-8v0c0-4.418,3.582-8,8-8h16c4.418,0,8,3.582,8,8v0C56,28.418,52.418,32,48,32z"/>
<linearGradient id="SVGID_4_" gradientUnits="userSpaceOnUse" x1="48" y1="40" x2="80" y2="40">
	<stop  offset="0.16" style="stop-color:#5B19FF;stop-opacity:0"/>
	<stop  offset="1" style="stop-color:#3C19FF"/>
</linearGradient>
<path class="st3" d="M72,48H56c-4.418,0-8-3.582-8-8v0c0-4.418,3.582-8,8-8h16c4.418,0,8,3.582,8,8v0C80,44.418,76.418,48,72,48z"/>
<g>
	<g>
		<path d="M75.38,56c-2.079,0-15.707,0-15.707,0V7.877c0,0,12.704,0,16.323,0c16.399,0,25.947,9.394,25.947,23.715
			C101.943,46.453,92.473,56,75.38,56z M75.457,15.808h-6.391v32.261h6.853c10.163,0,16.631-5.312,16.631-16.015
			C92.55,21.198,86.467,15.808,75.457,15.808z"/>
	</g>
</g>
<linearGradient id="SVGID_5_" gradientUnits="userSpaceOnUse" x1="112" y1="40" x2="144" y2="40">
	<stop  offset="0.16" style="stop-color:#5B19FF;stop-opacity:0"/>
	<stop  offset="1" style="stop-color:#3C19FF"/>
</linearGradient>
<path class="st4" d="M136,48h-16c-4.418,0-8-3.582-8-8v0c0-4.418,3.582-8,8-8h16c4.418,0,8,3.582,8,8v0
	C144,44.418,140.418,48,136,48z"/>
<linearGradient id="SVGID_6_" gradientUnits="userSpaceOnUse" x1="121" y1="8" x2="153" y2="8">
	<stop  offset="0.16" style="stop-color:#5B19FF;stop-opacity:0"/>
	<stop  offset="1" style="stop-color:#3C19FF"/>
</linearGradient>
<path class="st5" d="M145,16h-16c-4.418,0-8-3.582-8-8v0c0-4.418,3.582-8,8-8h16c4.418,0,8,3.582,8,8v0
	C153,12.418,149.418,16,145,16z"/>
<linearGradient id="SVGID_7_" gradientUnits="userSpaceOnUse" x1="128" y1="32" x2="160" y2="32">
	<stop  offset="0.16" style="stop-color:#5B19FF;stop-opacity:0"/>
	<stop  offset="1" style="stop-color:#3C19FF"/>
</linearGradient>
<path class="st6" d="M152,40h-16c-4.418,0-8-3.582-8-8v0c0-4.418,3.582-8,8-8h16c4.418,0,8,3.582,8,8v0
	C160,36.418,156.418,40,152,40z"/>
<linearGradient id="SVGID_8_" gradientUnits="userSpaceOnUse" x1="80" y1="24" x2="112" y2="24">
	<stop  offset="0.16" style="stop-color:#5B19FF;stop-opacity:0"/>
	<stop  offset="1" style="stop-color:#3C19FF"/>
</linearGradient>
<path class="st7" d="M104,32H88c-4.418,0-8-3.582-8-8v0c0-4.418,3.582-8,8-8h16c4.418,0,8,3.582,8,8v0C112,28.418,108.418,32,104,32
	z"/>
</svg>
