<?xml version="1.0" encoding="utf-8"?>
<!-- Generator: Adobe Illustrator 19.1.0, SVG Export Plug-In . SVG Version: 6.00 Build 0)  -->
<svg version="1.1" xmlns="http://www.w3.org/2000/svg" xmlns:xlink="http://www.w3.org/1999/xlink" x="0px" y="0px"
	 viewBox="0 0 128 128" style="enable-background:new 0 0 128 128;" xml:space="preserve">
<style type="text/css">
	.st0{display:none;}
	.st1{display:inline;opacity:0.2;fill:#231F20;}
	.st2{fill:none;stroke:#051121;stroke-miterlimit:10;}
</style>
<g id="Layer_2" class="st0">
	<rect class="st1" width="38" height="38"/>
	<rect x="45" class="st1" width="38" height="38"/>
	<rect x="90" class="st1" width="38" height="38"/>
	<rect y="45" class="st1" width="38" height="38"/>
	<rect x="45" y="45" class="st1" width="38" height="38"/>
	<rect x="90" y="45" class="st1" width="38" height="38"/>
	<rect y="90" class="st1" width="38" height="38"/>
	<rect x="45" y="90" class="st1" width="38" height="38"/>
	<rect x="90" y="90" class="st1" width="38" height="38"/>
</g>
<g id="Layer_1">
	<circle class="st2" cx="12.5" cy="12.5" r="12"/>
	<circle class="st2" cx="26" cy="57" r="11.5"/>
	<circle class="st2" cx="71" cy="71" r="11.5"/>
	<circle class="st2" cx="71" cy="60" r="11.5"/>
	<circle class="st2" cx="102" cy="102" r="11.5"/>
	<circle class="st2" cx="26" cy="116" r="11.5"/>
	<circle class="st2" cx="71" cy="26" r="11.5"/>
	<circle class="st2" cx="116" cy="57" r="11.5"/>
	<circle class="st2" cx="110" cy="116" r="11.5"/>
	<circle class="st2" cx="57" cy="57" r="11.5"/>
	<circle class="st2" cx="12.5" cy="12.5" r="12"/>
	<circle class="st2" cx="26" cy="57" r="11.5"/>
	<circle class="st2" cx="71" cy="71" r="11.5"/>
	<circle class="st2" cx="71" cy="60" r="11.5"/>
	<circle class="st2" cx="102" cy="102" r="11.5"/>
	<circle class="st2" cx="26" cy="116" r="11.5"/>
	<circle class="st2" cx="71" cy="26" r="11.5"/>
	<circle class="st2" cx="116" cy="57" r="11.5"/>
	<circle class="st2" cx="110" cy="116" r="11.5"/>
	<circle class="st2" cx="57" cy="57" r="11.5"/>
</g>
</svg>
