<?xml version="1.0" encoding="utf-8"?>
<!-- Generator: Adobe Illustrator 19.1.0, SVG Export Plug-In . SVG Version: 6.00 Build 0)  -->
<svg version="1.1" id="Layer_1" xmlns="http://www.w3.org/2000/svg" xmlns:xlink="http://www.w3.org/1999/xlink" x="0px" y="0px"
	 viewBox="24 25 80 32" style="enable-background:new 24 25 80 32;" xml:space="preserve">
<style type="text/css">
	.st0{fill:url(#SVGID_1_);}
	.st1{fill:url(#SVGID_2_);}
	.st2{fill:#201D26;}
	.st3{fill:#FFFFFF;}
</style>
<linearGradient id="SVGID_1_" gradientUnits="userSpaceOnUse" x1="24" y1="677" x2="56" y2="677" gradientTransform="matrix(1 0 0 1 0 -636)">
	<stop  offset="0" style="stop-color:#5B19FF;stop-opacity:0"/>
	<stop  offset="1" style="stop-color:#3C19FF"/>
</linearGradient>
<circle class="st0" cx="40" cy="41" r="16"/>
<linearGradient id="SVGID_2_" gradientUnits="userSpaceOnUse" x1="48" y1="677" x2="80" y2="677" gradientTransform="matrix(1 0 0 1 0 -636)">
	<stop  offset="0" style="stop-color:#5B19FF;stop-opacity:0"/>
	<stop  offset="1" style="stop-color:#3C19FF"/>
</linearGradient>
<circle class="st1" cx="64" cy="41" r="16"/>
<g>
	<path class="st2" d="M88,25c-8.8,0-16,7.2-16,16s7.2,16,16,16s16-7.2,16-16S96.8,25,88,25z M86,49c-2.2,0-4-1.8-4-4h8
		C90,47.2,88.2,49,86,49z M92,43c-1.1,0-2-0.9-2-2s0.9-2,2-2s2,0.9,2,2S93.1,43,92,43z"/>
</g>
<path class="st3" d="M80,43c-1.1,0-2-0.9-2-2s0.9-2,2-2s2,0.9,2,2S81.1,43,80,43z"/>
</svg>
