<?xml version="1.0" encoding="utf-8"?>
<!-- Generator: Adobe Illustrator 19.1.0, SVG Export Plug-In . SVG Version: 6.00 Build 0)  -->
<svg version="1.1" id="Layer_1" xmlns="http://www.w3.org/2000/svg" xmlns:xlink="http://www.w3.org/1999/xlink" x="0px" y="0px"
	 viewBox="0 25 80 32" style="enable-background:new 0 25 80 32;" xml:space="preserve">
<style type="text/css">
	.st0{fill:url(#SVGID_1_);}
	.st1{fill:url(#SVGID_2_);}
	.st2{fill:#201D26;}
	.st3{fill:#FFFFFF;}
</style>
<linearGradient id="SVGID_1_" gradientUnits="userSpaceOnUse" x1="0" y1="-593" x2="32" y2="-593" gradientTransform="matrix(1 0 0 -1 24 -552)">
	<stop  offset="0" style="stop-color:#5B19FF;stop-opacity:0"/>
	<stop  offset="1" style="stop-color:#3C19FF"/>
</linearGradient>
<circle class="st0" cx="40" cy="41" r="16"/>
<linearGradient id="SVGID_2_" gradientUnits="userSpaceOnUse" x1="24" y1="-593" x2="56" y2="-593" gradientTransform="matrix(1 0 0 -1 24 -552)">
	<stop  offset="0" style="stop-color:#5B19FF;stop-opacity:0"/>
	<stop  offset="1" style="stop-color:#3C19FF"/>
</linearGradient>
<circle class="st1" cx="64" cy="41" r="16"/>
<g>
	<path class="st2" d="M0,41c0,8.8,7.2,16,16,16s16-7.2,16-16s-7.2-16-16-16S0,32.2,0,41z M14,45h8c0,2.2-1.8,4-4,4S14,47.2,14,45z
		 M10,41c0-1.1,0.9-2,2-2s2,0.9,2,2s-0.9,2-2,2S10,42.1,10,41z"/>
</g>
<path class="st3" d="M22,41c0-1.1,0.9-2,2-2s2,0.9,2,2s-0.9,2-2,2S22,42.1,22,41z"/>
</svg>
