<?xml version="1.0" encoding="utf-8"?>
<!-- Generator: Adobe Illustrator 19.1.0, SVG Export Plug-In . SVG Version: 6.00 Build 0)  -->
<svg version="1.1" id="Layer_1" xmlns="http://www.w3.org/2000/svg" xmlns:xlink="http://www.w3.org/1999/xlink" x="0px" y="0px"
	 viewBox="8 9 80 32" style="enable-background:new 8 9 80 32;" xml:space="preserve">
<style type="text/css">
	.st0{fill:url(#SVGID_1_);}
	.st1{fill:#201D26;}
	.st2{fill:url(#SVGID_2_);}
</style>
<linearGradient id="SVGID_1_" gradientUnits="userSpaceOnUse" x1="8" y1="661" x2="40" y2="661" gradientTransform="matrix(1 0 0 1 0 -636)">
	<stop  offset="0" style="stop-color:#5B19FF;stop-opacity:0"/>
	<stop  offset="1" style="stop-color:#3C19FF"/>
</linearGradient>
<circle class="st0" cx="24" cy="25" r="16"/>
<g>
	<path class="st1" d="M48,9c-8.8,0-16,7.2-16,16s7.2,16,16,16s16-7.2,16-16S56.8,9,48,9z M42,27c-1.1,0-2-0.9-2-2s0.9-2,2-2
		s2,0.9,2,2S43.1,27,42,27z M48,33c-2.2,0-4-1.8-4-4h8C52,31.2,50.2,33,48,33z M54,27c-1.1,0-2-0.9-2-2s0.9-2,2-2s2,0.9,2,2
		S55.1,27,54,27z"/>
</g>
<linearGradient id="SVGID_2_" gradientUnits="userSpaceOnUse" x1="56" y1="661" x2="88" y2="661" gradientTransform="matrix(1 0 0 1 0 -636)">
	<stop  offset="0" style="stop-color:#5B19FF;stop-opacity:0"/>
	<stop  offset="1" style="stop-color:#3C19FF"/>
</linearGradient>
<circle class="st2" cx="72" cy="25" r="16"/>
</svg>
