<?xml version="1.0" encoding="utf-8"?>
<!-- Generator: Adobe Illustrator 19.1.0, SVG Export Plug-In . SVG Version: 6.00 Build 0)  -->
<svg version="1.1" id="Layer_1" xmlns="http://www.w3.org/2000/svg" xmlns:xlink="http://www.w3.org/1999/xlink" x="0px" y="0px"
	 viewBox="0 0 224 32" style="enable-background:new 0 0 224 32;" xml:space="preserve">
<style type="text/css">
	.st0{fill:url(#SVGID_1_);}
	.st1{fill:url(#SVGID_2_);}
	.st2{fill:url(#SVGID_3_);}
	.st3{fill:url(#SVGID_4_);}
	.st4{fill:url(#SVGID_5_);}
	.st5{fill:url(#SVGID_6_);}
	.st6{fill:url(#SVGID_7_);}
	.st7{fill:url(#SVGID_8_);}
	.st8{fill:#201D26;}
	.st9{fill:url(#SVGID_9_);}
	.st10{fill:url(#SVGID_10_);}
	.st11{fill:url(#SVGID_11_);}
	.st12{fill:url(#SVGID_12_);}
</style>
<linearGradient id="SVGID_1_" gradientUnits="userSpaceOnUse" x1="-43" y1="18" x2="-27" y2="18" gradientTransform="matrix(1 0 0 -1 0 34)">
	<stop  offset="0" style="stop-color:#5B19FF;stop-opacity:0"/>
	<stop  offset="1" style="stop-color:#3C19FF"/>
</linearGradient>
<circle class="st0" cx="-35" cy="16" r="8"/>
<linearGradient id="SVGID_2_" gradientUnits="userSpaceOnUse" x1="58" y1="229" x2="74" y2="229" gradientTransform="matrix(4.489659e-11 -1 -1 -4.489659e-11 162 50)">
	<stop  offset="0" style="stop-color:#5B19FF;stop-opacity:0"/>
	<stop  offset="1" style="stop-color:#5B19FF"/>
</linearGradient>
<circle class="st1" cx="-67" cy="-16" r="8"/>
<linearGradient id="SVGID_3_" gradientUnits="userSpaceOnUse" x1="104" y1="-147" x2="120" y2="-147" gradientTransform="matrix(4.489659e-11 1 1 -4.489659e-11 80 -64)">
	<stop  offset="0" style="stop-color:#5B19FF;stop-opacity:0"/>
	<stop  offset="1" style="stop-color:#5B19FF"/>
</linearGradient>
<circle class="st2" cx="-67" cy="48" r="8"/>
<linearGradient id="SVGID_4_" gradientUnits="userSpaceOnUse" x1="205" y1="64" x2="221" y2="64" gradientTransform="matrix(-1 0 0 1 114 -48)">
	<stop  offset="0" style="stop-color:#5B19FF;stop-opacity:0"/>
	<stop  offset="1" style="stop-color:#5B19FF"/>
</linearGradient>
<circle class="st3" cx="-99" cy="16" r="8"/>
<linearGradient id="SVGID_5_" gradientUnits="userSpaceOnUse" x1="18.9539" y1="-85.5737" x2="34.954" y2="-85.5737" gradientTransform="matrix(0.7071 0.7071 0.7071 -0.7071 -2.923 -40.9413)">
	<stop  offset="0" style="stop-color:#5B19FF;stop-opacity:0"/>
	<stop  offset="1" style="stop-color:#5B19FF"/>
</linearGradient>
<circle class="st4" cx="-44.4" cy="38.6" r="8"/>
<linearGradient id="SVGID_6_" gradientUnits="userSpaceOnUse" x1="-45.5733" y1="167.046" x2="-29.5732" y2="167.046" gradientTransform="matrix(0.7071 -0.7071 -0.7071 -0.7071 100.3135 84.923)">
	<stop  offset="0" style="stop-color:#5B19FF;stop-opacity:0"/>
	<stop  offset="1" style="stop-color:#5B19FF"/>
</linearGradient>
<circle class="st5" cx="-44.4" cy="-6.6" r="8"/>
<linearGradient id="SVGID_7_" gradientUnits="userSpaceOnUse" x1="207.5733" y1="-85.0467" x2="223.5735" y2="-85.0467" gradientTransform="matrix(-0.7071 0.7071 0.7071 0.7071 122.9413 -53.6682)">
	<stop  offset="0" style="stop-color:#5B19FF;stop-opacity:0"/>
	<stop  offset="1" style="stop-color:#5B19FF"/>
</linearGradient>
<circle class="st6" cx="-89.6" cy="38.6" r="8"/>
<linearGradient id="SVGID_8_" gradientUnits="userSpaceOnUse" x1="143.0461" y1="167.573" x2="159.0463" y2="167.573" gradientTransform="matrix(-0.7071 -0.7071 -0.7071 0.7071 135.6682 -18.3135)">
	<stop  offset="0" style="stop-color:#5B19FF;stop-opacity:0"/>
	<stop  offset="1" style="stop-color:#5B19FF"/>
</linearGradient>
<circle class="st7" cx="-89.6" cy="-6.6" r="8"/>
<g>
	<path class="st8" d="M-67,0c-8.8,0-16,7.2-16,16s7.2,16,16,16s16-7.2,16-16S-58.2,0-67,0z M-73,18c-1.1,0-2-0.9-2-2s0.9-2,2-2
		s2,0.9,2,2S-71.9,18-73,18z M-67,24c-2.2,0-4-1.8-4-4h8C-63,22.2-64.8,24-67,24z M-61,18c-1.1,0-2-0.9-2-2s0.9-2,2-2s2,0.9,2,2
		S-59.9,18-61,18z"/>
</g>
<g>
	<path class="st8" d="M112,0c-8.8,0-16,7.2-16,16s7.2,16,16,16s16-7.2,16-16S120.8,0,112,0z M106,18c-1.1,0-2-0.9-2-2s0.9-2,2-2
		s2,0.9,2,2S107.1,18,106,18z M112,24c-2.2,0-4-1.8-4-4h8C116,22.2,114.2,24,112,24z M118,18c-1.1,0-2-0.9-2-2s0.9-2,2-2s2,0.9,2,2
		S119.1,18,118,18z"/>
</g>
<g>
	<linearGradient id="SVGID_9_" gradientUnits="userSpaceOnUse" x1="0" y1="16" x2="36" y2="16">
		<stop  offset="0" style="stop-color:#5B19FF;stop-opacity:0"/>
		<stop  offset="1" style="stop-color:#3C19FF"/>
	</linearGradient>
	<path class="st9" d="M34,16h-2c0-8.8-7.2-16-16-16S0,7.2,0,16s7.2,16,16,16c6.1,0,11.4-3.4,14.1-8.5c-1.3-0.7-2.1-2-2.1-3.5h2h4
		c1.1,0,2-0.9,2-2C36,16.9,35.1,16,34,16z M28,18c-1.1,0-2-0.9-2-2c0-1.1,0.9-2,2-2s2,0.9,2,2C30,17.1,29.1,18,28,18z"/>
</g>
<linearGradient id="SVGID_10_" gradientUnits="userSpaceOnUse" x1="48" y1="16" x2="80" y2="16">
	<stop  offset="0" style="stop-color:#5B19FF;stop-opacity:0"/>
	<stop  offset="1" style="stop-color:#3C19FF"/>
</linearGradient>
<path class="st10" d="M64,0c-8.8,0-16,7.2-16,16s7.2,16,16,16s16-7.2,16-16S72.8,0,64,0z M66,16c0-1.1,0.9-2,2-2s2,0.9,2,2
	c0,1.1-0.9,2-2,2S66,17.1,66,16z M72,24c-2.2,0-4-1.8-4-4h2h4h2C76,22.2,74.2,24,72,24z M76,18c0-1.1-0.9-2-2-2c0-1.1,0.9-2,2-2
	s2,0.9,2,2C78,17.1,77.1,18,76,18z"/>
<g>
	
		<linearGradient id="SVGID_11_" gradientUnits="userSpaceOnUse" x1="-144" y1="16" x2="-108" y2="16" gradientTransform="matrix(-1 0 0 1 80 0)">
		<stop  offset="0" style="stop-color:#5B19FF;stop-opacity:0"/>
		<stop  offset="1" style="stop-color:#3C19FF"/>
	</linearGradient>
	<path class="st11" d="M188,18c0,1.1,0.9,2,2,2h4h2c0,1.5-0.9,2.8-2.1,3.5c2.7,5.1,8,8.5,14.1,8.5c8.8,0,16-7.2,16-16s-7.2-16-16-16
		s-16,7.2-16,16h-2C188.9,16,188,16.9,188,18z M194,16c0-1.1,0.9-2,2-2s2,0.9,2,2c0,1.1-0.9,2-2,2S194,17.1,194,16z"/>
</g>
<linearGradient id="SVGID_12_" gradientUnits="userSpaceOnUse" x1="-96" y1="16" x2="-64" y2="16" gradientTransform="matrix(-1 0 0 1 80 0)">
	<stop  offset="0" style="stop-color:#5B19FF;stop-opacity:0"/>
	<stop  offset="1" style="stop-color:#3C19FF"/>
</linearGradient>
<path class="st12" d="M144,16c0,8.8,7.2,16,16,16s16-7.2,16-16s-7.2-16-16-16C151.2,0,144,7.2,144,16z M156,18c-1.1,0-2-0.9-2-2
	c0-1.1,0.9-2,2-2s2,0.9,2,2C158,17.1,157.1,18,156,18z M148,20h2h4h2c0,2.2-1.8,4-4,4S148,22.2,148,20z M146,16c0-1.1,0.9-2,2-2
	s2,0.9,2,2c-1.1,0-2,0.9-2,2C146.9,18,146,17.1,146,16z"/>
</svg>
